<svg width="185" height="222" viewBox="0 0 185 222" fill="none" xmlns="http://www.w3.org/2000/svg">
<g filter="url(#filter0_i_200_2)">
<path d="M92.5405 164.966C92.5405 164.966 100.941 161.856 105.703 158.751C110.451 155.655 112.942 153.684 116.671 149.245C118.658 146.88 120.212 145.32 121.79 142.664C124.921 137.391 126.787 134.099 128.371 128.04C129.894 122.211 130.786 118.344 129.833 112.684C128.709 106.008 128.041 104.314 124.714 100.253C120.82 95.4979 115.332 92.9942 111.187 92.2094C107.82 91.5718 105.431 91.6736 102.046 92.2095C98.7907 92.725 97.0968 93.2011 94.7342 95.4998C93.6273 96.5768 92.1749 98.7903 92.1749 98.7903L90.3468 102.081C90.3468 102.081 87.8619 97.4818 85.5939 95.4998C81.8618 92.2384 78.4714 91.8454 73.5287 91.4783C70.6809 91.2668 68.6283 92.2774 65.8508 92.9407C62.4918 93.7429 58.1729 97.3279 58.1729 97.3279C58.1729 97.3279 55.1759 99.9717 53.7861 102.081C51.4009 105.701 51.2772 108.419 50.4972 112.684C49.8017 116.486 50.1562 118.493 50.4963 122.19C50.6813 124.2 50.667 125.515 51.2263 127.308C52.2406 130.559 55.2507 136.083 55.2507 136.083C55.2507 136.083 57.9013 140.43 59.2725 142.664C60.6191 144.858 62.563 147.051 62.563 147.051L65.8535 151.073L69.5096 155.095C69.5096 155.095 72.3312 158.505 74.2626 160.579C76.1891 162.648 77.3343 163.748 79.3812 165.698C82.0169 168.208 83.7184 169.375 86.3278 171.913C87.1963 172.758 88.5215 174.107 88.5215 174.107" stroke="white" stroke-width="4.38735" stroke-linecap="round"/>
</g>
<g filter="url(#filter1_f_200_2)">
<path d="M42.8203 94.7686L40.9922 101.35C40.9922 101.35 44.493 95.9912 47.2076 92.9405C48.9526 90.9795 50.0618 90.0001 51.9606 88.1876C54.5937 85.6741 55.8643 83.9702 58.9072 81.9722C61.3091 80.395 62.8353 79.7854 65.4882 78.6816C67.4451 77.8675 68.5823 77.5028 70.598 76.8564L70.6068 76.8536C72.5864 76.2187 73.7033 75.874 75.7254 75.3911C77.9861 74.8513 79.2574 74.4677 81.5752 74.2943C83.1414 74.1771 84.0263 74.2943 85.5969 74.2943C87.7386 74.2943 88.9426 74.1772 91.0811 74.2943C93.5215 74.4279 94.8971 74.5607 97.2965 75.0255C99.0304 75.3614 99.9681 75.7039 101.684 76.1224C104.106 76.7132 104.826 76.7279 107.168 77.5848C108.489 78.0681 111.555 79.4129 111.555 79.4129C111.555 79.4129 113.185 80.1804 114.48 80.8753C117.012 82.2337 121.061 84.1658 121.061 84.1658C121.061 84.1658 119.154 81.4134 117.771 79.7785C115.814 77.4663 114.599 76.2507 112.287 74.2943C110.652 72.9109 109.719 72.1332 107.899 71.0038C106 69.8252 104.78 69.444 102.781 68.4445C99.9251 67.0167 98.4514 65.9266 95.4685 64.7884C93.1047 63.8863 91.7144 63.5459 89.2531 62.9603C86.9919 62.4223 85.7097 62.1513 83.4033 61.8635C80.7076 61.5271 76.4566 61.4978 76.4566 61.4978C76.4566 61.4978 77.8588 58.8549 78.6503 57.1105C79.6033 55.0099 80.0835 53.804 80.844 51.6263C81.4842 49.7929 81.8108 48.7511 82.3064 46.8733C83.0496 44.0576 83.5257 42.4631 83.7689 39.5611C83.9477 37.4269 83.7689 36.2186 83.7689 34.0769C83.7689 31.9352 83.8951 30.7307 83.7689 28.5927C83.5558 24.9841 82.3064 19.4524 82.3064 19.4524C82.3064 19.4524 81.8712 21.2377 81.5752 22.3773C80.7913 25.3955 79.3815 30.0552 79.3815 30.0552C79.3815 30.0552 78.5111 32.5141 77.9191 34.0769C77.1019 36.234 76.6659 37.4548 75.7254 39.5611C74.684 41.8933 74.0694 43.1943 72.8005 45.4109C71.2659 48.0915 70.1022 49.4058 68.4131 51.9919C67.1137 53.9815 66.4209 55.1201 65.1226 57.1105C63.1539 60.1288 60.004 64.7884 60.004 64.7884L54.1542 73.1975L50.1325 79.7785L47.5732 84.1658L45.3795 88.5532L42.8203 94.7686Z" fill="#6E2323"/>
<path d="M42.8203 94.7686L40.9922 101.35C40.9922 101.35 44.493 95.9912 47.2076 92.9405C48.9526 90.9795 50.0618 90.0001 51.9606 88.1876C54.5937 85.6741 55.8643 83.9702 58.9072 81.9722C61.3091 80.395 62.8353 79.7854 65.4882 78.6816C67.4451 77.8675 68.5823 77.5028 70.598 76.8564L70.6068 76.8536C72.5864 76.2187 73.7033 75.874 75.7254 75.3911C77.9861 74.8513 79.2574 74.4677 81.5752 74.2943C83.1414 74.1771 84.0263 74.2943 85.5969 74.2943C87.7386 74.2943 88.9426 74.1772 91.0811 74.2943C93.5215 74.4279 94.8971 74.5607 97.2965 75.0255C99.0304 75.3614 99.9681 75.7039 101.684 76.1224C104.106 76.7132 104.826 76.7279 107.168 77.5848C108.489 78.0681 111.555 79.4129 111.555 79.4129C111.555 79.4129 113.185 80.1804 114.48 80.8753C117.012 82.2337 121.061 84.1658 121.061 84.1658C121.061 84.1658 119.154 81.4134 117.771 79.7785C115.814 77.4663 114.599 76.2507 112.287 74.2943C110.652 72.9109 109.719 72.1332 107.899 71.0038C106 69.8252 104.78 69.444 102.781 68.4445C99.9251 67.0167 98.4514 65.9266 95.4685 64.7884C93.1047 63.8863 91.7144 63.5459 89.2531 62.9603C86.9919 62.4223 85.7097 62.1513 83.4033 61.8635C80.7076 61.5271 76.4566 61.4978 76.4566 61.4978C76.4566 61.4978 77.8588 58.8549 78.6503 57.1105C79.6033 55.0099 80.0835 53.804 80.844 51.6263C81.4842 49.7929 81.8108 48.7511 82.3064 46.8733C83.0496 44.0576 83.5257 42.4631 83.7689 39.5611C83.9477 37.4269 83.7689 36.2186 83.7689 34.0769C83.7689 31.9352 83.8951 30.7307 83.7689 28.5927C83.5558 24.9841 82.3064 19.4524 82.3064 19.4524C82.3064 19.4524 81.8712 21.2377 81.5752 22.3773C80.7913 25.3955 79.3815 30.0552 79.3815 30.0552C79.3815 30.0552 78.5111 32.5141 77.9191 34.0769C77.1019 36.234 76.6659 37.4548 75.7254 39.5611C74.684 41.8933 74.0694 43.1943 72.8005 45.4109C71.2659 48.0915 70.1022 49.4058 68.4131 51.9919C67.1137 53.9815 66.4209 55.1201 65.1226 57.1105C63.1539 60.1288 60.004 64.7884 60.004 64.7884L54.1542 73.1975L50.1325 79.7785L47.5732 84.1658L45.3795 88.5532L42.8203 94.7686Z" stroke="#6E2323" stroke-width="0.365613"/>
</g>
<path d="M75.7245 3C75.7245 3 73.1141 13.8655 70.606 20.5494C68.6298 25.8157 66.5943 31.2377 63.2954 37.3676C60.3828 42.7798 54.8846 51.6265 54.8846 51.6265C54.8846 51.6265 47.996 62.05 44.2819 67.7134C40.4141 73.6112 33.6791 83.4348 33.6791 83.4348C33.6791 83.4348 28.6726 91.3419 26.3686 96.9624C24.0697 102.571 23.0986 105.939 22.7131 111.953C22.3178 118.121 24.5408 127.674 24.5408 127.674L30.025 140.47C30.025 140.47 36.8474 150.607 42.8215 155.46C48.1823 159.815 51.6736 161.91 58.1772 164.235C63.9254 166.29 68.414 166.429 68.414 166.429" stroke="white" stroke-width="4.38735" stroke-linecap="round"/>
<circle cx="98.4245" cy="49.5075" r="8.48411" fill="black"/>
<path d="M101.64 192.742C101.64 197.231 98.0606 201.893 92.8301 201.893C87.5995 201.893 83.3594 198.105 83.3594 193.433C84.4606 188.081 90.4073 181.175 92.8301 177.031C94.5921 180.484 100.759 187.39 101.64 192.742Z" fill="white"/>
<g filter="url(#filter2_f_200_2)">
<path d="M89.2117 189.462C89.2464 187.246 90.6742 183.978 90.6742 183.978L92.7261 177.48C92.7261 177.48 90.5547 180.529 89.2117 182.515C88.6351 183.368 88.3095 183.845 87.7493 184.709C87.0165 185.839 85.9212 187.634 85.9212 187.634C85.9212 187.634 84.604 189.546 84.0932 190.925C83.6358 192.159 83.2996 192.9 83.3619 194.215C83.426 195.568 84.4568 197.506 84.4568 197.506C84.4568 197.506 86.8388 200.25 89.2117 201.162C90.5709 201.684 92.1135 202.209 93.9647 201.893C94.8548 201.741 96.1564 201.162 96.1564 201.162C96.1564 201.162 94.7537 200.361 93.9647 199.699C92.3234 198.323 91.6131 197.237 90.6742 195.312C89.6419 193.195 89.1749 191.817 89.2117 189.462Z" fill="#400004"/>
<path d="M92.8679 177.031L92.7261 177.48M92.7261 177.48L90.6742 183.978C90.6742 183.978 89.2464 187.246 89.2117 189.462C89.1749 191.817 89.6419 193.195 90.6742 195.312C91.6131 197.237 92.3234 198.323 93.9647 199.699C94.7537 200.361 96.1564 201.162 96.1564 201.162C96.1564 201.162 94.8548 201.741 93.9647 201.893C92.1135 202.209 90.5709 201.684 89.2117 201.162C86.8388 200.25 84.4568 197.506 84.4568 197.506C84.4568 197.506 83.426 195.568 83.3619 194.215C83.2996 192.9 83.6358 192.159 84.0932 190.925C84.604 189.546 85.9212 187.634 85.9212 187.634C85.9212 187.634 87.0165 185.839 87.7493 184.709C88.3095 183.845 88.6351 183.368 89.2117 182.515C90.5547 180.529 92.7261 177.48 92.7261 177.48Z" stroke="black" stroke-width="0.365613"/>
</g>
<path d="M8.60387 187.708V187.217H13.4475C14.3835 187.217 15.1264 187.345 15.6763 187.603C16.2262 187.86 16.6181 188.2 16.8521 188.621C17.0978 189.042 17.2206 189.51 17.2206 190.025V190.499C17.2206 191.107 17.0276 191.633 16.6415 192.078C16.2671 192.511 15.7172 192.821 14.9919 193.008C15.881 193.16 16.5596 193.476 17.0276 193.956C17.5073 194.435 17.7471 195.038 17.7471 195.763V196.255C17.7471 196.781 17.6243 197.267 17.3786 197.711C17.1329 198.144 16.7234 198.495 16.1501 198.764C15.5885 199.022 14.8339 199.15 13.8862 199.15H8.60387V198.659L9.56909 198.536C9.75628 198.513 9.86743 198.466 9.90253 198.396C9.93763 198.314 9.95518 198.074 9.95518 197.676V188.691C9.95518 188.293 9.93763 188.059 9.90253 187.989C9.86743 187.907 9.75628 187.854 9.56909 187.831L8.60387 187.708ZM13.4475 187.831H12.0611V192.745H13.4475C13.9506 192.745 14.3308 192.575 14.5882 192.236C14.8456 191.885 14.9743 191.335 14.9743 190.586V190.025C14.9743 189.264 14.8456 188.708 14.5882 188.358C14.3308 188.007 13.9506 187.831 13.4475 187.831ZM13.8862 193.359H12.0611V198.536H13.8862C14.4127 198.536 14.8105 198.361 15.0796 198.01C15.3604 197.647 15.5008 197.062 15.5008 196.255V195.676C15.5008 194.131 14.9626 193.359 13.8862 193.359ZM27.2626 196.132H27.754V199.15H19.418V198.659L20.3832 198.536C20.5704 198.513 20.6816 198.466 20.7167 198.396C20.7518 198.314 20.7693 198.074 20.7693 197.676V188.691C20.7693 188.293 20.7518 188.059 20.7167 187.989C20.6816 187.907 20.5704 187.854 20.3832 187.831L19.418 187.708V187.217H24.2265V187.708L23.2613 187.831C23.0741 187.854 22.963 187.907 22.9279 187.989C22.8928 188.059 22.8752 188.293 22.8752 188.691V198.536H25.7533C26.0341 198.536 26.233 198.53 26.35 198.519C26.467 198.495 26.5431 198.454 26.5782 198.396C26.625 198.326 26.6659 198.22 26.701 198.08L27.2626 196.132ZM38.6737 192.622V193.728C38.6737 195.529 38.2701 196.916 37.4628 197.887C36.6672 198.846 35.4855 199.326 33.9178 199.326C32.3501 199.326 31.1625 198.846 30.3553 197.887C29.5597 196.916 29.1619 195.529 29.1619 193.728V192.622C29.1619 190.82 29.5597 189.44 30.3553 188.48C31.1625 187.521 32.3501 187.041 33.9178 187.041C35.4855 187.041 36.6672 187.521 37.4628 188.48C38.2701 189.44 38.6737 190.82 38.6737 192.622ZM36.4274 191.745C36.4274 190.715 36.3396 189.908 36.1641 189.323C35.9886 188.726 35.7137 188.299 35.3393 188.042C34.9766 187.784 34.5028 187.656 33.9178 187.656C33.3445 187.656 32.8707 187.784 32.4963 188.042C32.1219 188.299 31.847 188.726 31.6715 189.323C31.496 189.908 31.4082 190.715 31.4082 191.745V194.605C31.4082 195.623 31.496 196.43 31.6715 197.027C31.847 197.624 32.1219 198.056 32.4963 198.326C32.8707 198.583 33.3445 198.712 33.9178 198.712C34.5028 198.712 34.9766 198.583 35.3393 198.326C35.7137 198.056 35.9886 197.624 36.1641 197.027C36.3396 196.43 36.4274 195.623 36.4274 194.605V191.745ZM50.499 192.622V193.728C50.499 195.529 50.0953 196.916 49.2881 197.887C48.4925 198.846 47.3108 199.326 45.7431 199.326C44.1753 199.326 42.9878 198.846 42.1806 197.887C41.385 196.916 40.9872 195.529 40.9872 193.728V192.622C40.9872 190.82 41.385 189.44 42.1806 188.48C42.9878 187.521 44.1753 187.041 45.7431 187.041C47.3108 187.041 48.4925 187.521 49.2881 188.48C50.0953 189.44 50.499 190.82 50.499 192.622ZM48.2526 191.745C48.2526 190.715 48.1649 189.908 47.9894 189.323C47.8139 188.726 47.539 188.299 47.1646 188.042C46.8019 187.784 46.3281 187.656 45.7431 187.656C45.1698 187.656 44.696 187.784 44.3216 188.042C43.9472 188.299 43.6723 188.726 43.4968 189.323C43.3213 189.908 43.2335 190.715 43.2335 191.745V194.605C43.2335 195.623 43.3213 196.43 43.4968 197.027C43.6723 197.624 43.9472 198.056 44.3216 198.326C44.696 198.583 45.1698 198.712 45.7431 198.712C46.3281 198.712 46.8019 198.583 47.1646 198.326C47.539 198.056 47.8139 197.624 47.9894 197.027C48.1649 196.43 48.2526 195.623 48.2526 194.605V191.745ZM52.4088 187.708V187.217H57.5859C59.0835 187.217 60.23 187.656 61.0256 188.533C61.8329 189.41 62.2365 190.773 62.2365 192.622V193.728C62.2365 195.576 61.8329 196.945 61.0256 197.834C60.23 198.712 59.0835 199.15 57.5859 199.15H52.4088V198.659L53.3741 198.536C53.5613 198.513 53.6724 198.466 53.7075 198.396C53.7426 198.314 53.7601 198.074 53.7601 197.676V188.691C53.7601 188.293 53.7426 188.059 53.7075 187.989C53.6724 187.907 53.5613 187.854 53.3741 187.831L52.4088 187.708ZM57.4982 187.831H55.8661V198.536H57.4982C58.0948 198.536 58.5745 198.437 58.9372 198.238C59.2999 198.027 59.5632 197.641 59.7269 197.08C59.9024 196.506 59.9902 195.681 59.9902 194.605V191.745C59.9902 190.668 59.9024 189.849 59.7269 189.288C59.5632 188.726 59.2999 188.346 58.9372 188.147C58.5745 187.936 58.0948 187.831 57.4982 187.831ZM71.9977 187.708V187.217H77.1748C78.6723 187.217 79.8189 187.656 80.6144 188.533C81.4217 189.41 81.8254 190.773 81.8254 192.622V193.728C81.8254 195.576 81.4217 196.945 80.6144 197.834C79.8189 198.712 78.6723 199.15 77.1748 199.15H71.9977V198.659L72.9629 198.536C73.1501 198.513 73.2612 198.466 73.2963 198.396C73.3314 198.314 73.349 198.074 73.349 197.676V188.691C73.349 188.293 73.3314 188.059 73.2963 187.989C73.2612 187.907 73.1501 187.854 72.9629 187.831L71.9977 187.708ZM77.087 187.831H75.4549V198.536H77.087C77.6837 198.536 78.1634 198.437 78.5261 198.238C78.8887 198.027 79.152 197.641 79.3158 197.08C79.4913 196.506 79.579 195.681 79.579 194.605V191.745C79.579 190.668 79.4913 189.849 79.3158 189.288C79.152 188.726 78.8887 188.346 78.5261 188.147C78.1634 187.936 77.6837 187.831 77.087 187.831ZM110.766 187.708V187.217H114.171V187.708L113.206 187.831C113.018 187.854 112.907 187.907 112.872 187.989C112.837 188.059 112.82 188.293 112.82 188.691V199.15H111.854L105.414 188.744V197.676C105.414 198.074 105.431 198.314 105.466 198.396C105.501 198.466 105.613 198.513 105.8 198.536L106.765 198.659V199.15H103.36V198.659L104.326 198.536C104.513 198.513 104.624 198.466 104.659 198.396C104.694 198.314 104.712 198.074 104.712 197.676V188.691C104.712 188.293 104.694 188.059 104.659 187.989C104.624 187.907 104.513 187.854 104.326 187.831L103.36 187.708V187.217H106.888L112.118 195.623V188.691C112.118 188.293 112.1 188.059 112.065 187.989C112.03 187.907 111.919 187.854 111.731 187.831L110.766 187.708ZM117.85 198.659V199.15H114.463V198.659L115.428 198.536C115.557 198.513 115.65 198.489 115.709 198.466C115.767 198.431 115.82 198.355 115.867 198.238C115.914 198.121 115.978 197.934 116.06 197.676L119.412 187.217H120.921L124.291 197.676C124.372 197.934 124.437 198.121 124.484 198.238C124.53 198.355 124.583 198.431 124.642 198.466C124.712 198.489 124.805 198.513 124.922 198.536L125.888 198.659V199.15H121.044V198.659L122.009 198.536C122.196 198.513 122.296 198.466 122.307 198.396C122.331 198.314 122.278 198.074 122.15 197.676L121.483 195.5H117.429L116.744 197.676C116.627 198.074 116.575 198.314 116.586 198.396C116.598 198.466 116.697 198.513 116.885 198.536L117.85 198.659ZM117.639 194.886H121.29L119.482 189.059L117.639 194.886ZM125.113 187.217H134.765V190.235H134.274L133.712 188.287C133.677 188.135 133.636 188.03 133.589 187.971C133.554 187.901 133.478 187.86 133.361 187.849C133.244 187.837 133.045 187.831 132.765 187.831H130.992V197.676C130.992 198.074 131.01 198.314 131.045 198.396C131.08 198.466 131.191 198.513 131.378 198.536L132.343 198.659V199.15H127.535V198.659L128.5 198.536C128.687 198.513 128.798 198.466 128.833 198.396C128.869 198.314 128.886 198.074 128.886 197.676V187.831H127.114C126.845 187.831 126.646 187.837 126.517 187.849C126.4 187.86 126.324 187.901 126.289 187.971C126.254 188.03 126.213 188.135 126.166 188.287L125.604 190.235H125.113V187.217ZM135.734 187.708V187.217H140.543V187.708L139.578 187.831C139.39 187.854 139.279 187.907 139.244 187.989C139.209 188.059 139.191 188.293 139.191 188.691V197.676C139.191 198.074 139.209 198.314 139.244 198.396C139.279 198.466 139.39 198.513 139.578 198.536L140.543 198.659V199.15H135.734V198.659L136.699 198.536C136.887 198.513 136.998 198.466 137.033 198.396C137.068 198.314 137.086 198.074 137.086 197.676V188.691C137.086 188.293 137.068 188.059 137.033 187.989C136.998 187.907 136.887 187.854 136.699 187.831L135.734 187.708ZM151.974 192.622V193.728C151.974 195.529 151.57 196.916 150.763 197.887C149.967 198.846 148.785 199.326 147.218 199.326C145.65 199.326 144.462 198.846 143.655 197.887C142.86 196.916 142.462 195.529 142.462 193.728V192.622C142.462 190.82 142.86 189.44 143.655 188.48C144.462 187.521 145.65 187.041 147.218 187.041C148.785 187.041 149.967 187.521 150.763 188.48C151.57 189.44 151.974 190.82 151.974 192.622ZM149.727 191.745C149.727 190.715 149.64 189.908 149.464 189.323C149.289 188.726 149.014 188.299 148.639 188.042C148.277 187.784 147.803 187.656 147.218 187.656C146.644 187.656 146.171 187.784 145.796 188.042C145.422 188.299 145.147 188.726 144.971 189.323C144.796 189.908 144.708 190.715 144.708 191.745V194.605C144.708 195.623 144.796 196.43 144.971 197.027C145.147 197.624 145.422 198.056 145.796 198.326C146.171 198.583 146.644 198.712 147.218 198.712C147.803 198.712 148.277 198.583 148.639 198.326C149.014 198.056 149.289 197.624 149.464 197.027C149.64 196.43 149.727 195.623 149.727 194.605V191.745ZM161.289 187.708V187.217H164.694V187.708L163.729 187.831C163.542 187.854 163.43 187.907 163.395 187.989C163.36 188.059 163.343 188.293 163.343 188.691V199.15H162.377L155.937 188.744V197.676C155.937 198.074 155.954 198.314 155.989 198.396C156.025 198.466 156.136 198.513 156.323 198.536L157.288 198.659V199.15H153.884V198.659L154.849 198.536C155.036 198.513 155.147 198.466 155.182 198.396C155.217 198.314 155.235 198.074 155.235 197.676V188.691C155.235 188.293 155.217 188.059 155.182 187.989C155.147 187.907 155.036 187.854 154.849 187.831L153.884 187.708V187.217H157.411L162.641 195.623V188.691C162.641 188.293 162.623 188.059 162.588 187.989C162.553 187.907 162.442 187.854 162.255 187.831L161.289 187.708Z" fill="black"/>
<g filter="url(#filter3_f_200_2)">
<path d="M120.287 83.4347C120.287 83.4347 112.398 76.6061 106.393 73.9288C103.63 72.6967 99.0811 71.3695 99.0811 71.3695L91.7688 69.1758C91.7688 69.1758 86.198 68.3645 82.6285 68.079C79.059 67.7934 77.0669 67.4728 73.4882 67.3478C70.7056 67.2506 69.1429 67.3478 66.3587 67.3478H58.498L63.251 61.8636L69.832 54.5513C69.832 54.5513 73.2819 49.8362 74.9506 46.5078C76.329 43.7584 78.2411 39.5612 78.2411 39.5612C78.2411 39.5612 80.0005 34.7141 81.166 31.1521C82.3316 27.5901 82.2629 19.8181 82.2629 19.8181C82.5484 24.6727 83.4398 26.2976 83.7253 31.1521V36.2707C83.7253 36.2707 83.9376 38.7297 83.7253 40.2924C83.5136 41.8516 83.3289 42.7269 83.0082 44.2475L82.9941 44.3142C82.229 47.9412 81.3428 49.6077 80.0692 53.0889C78.7741 56.6289 76.0475 61.8636 76.0475 61.8636C76.0475 61.8636 80.7422 61.8946 83.7253 62.2292C86.8981 62.585 91.7688 63.6916 91.7688 63.6916L101.275 67.3478C101.275 67.3478 105.502 69.7266 107.49 71.0039C109.029 71.9921 109.736 72.7646 111.146 73.9288C113.332 75.7332 114.706 76.6015 116.63 78.6818C118.221 80.4006 120.287 83.4347 120.287 83.4347Z" fill="#020101"/>
<path d="M120.287 83.4347C120.287 83.4347 112.398 76.6061 106.393 73.9288C103.63 72.6967 99.0811 71.3695 99.0811 71.3695L91.7688 69.1758C91.7688 69.1758 86.198 68.3645 82.6285 68.079C79.059 67.7934 77.0669 67.4728 73.4882 67.3478C70.7056 67.2506 69.1429 67.3478 66.3587 67.3478H58.498L63.251 61.8636L69.832 54.5513C69.832 54.5513 73.2819 49.8362 74.9506 46.5078C76.329 43.7584 78.2411 39.5612 78.2411 39.5612C78.2411 39.5612 80.0005 34.7141 81.166 31.1521C82.3316 27.5901 82.2629 19.8181 82.2629 19.8181C82.5484 24.6727 83.4398 26.2976 83.7253 31.1521V36.2707C83.7253 36.2707 83.9376 38.7297 83.7253 40.2924C83.5136 41.8516 83.3289 42.7269 83.0082 44.2475L82.9941 44.3142C82.229 47.9412 81.3428 49.6077 80.0692 53.0889C78.7741 56.6289 76.0475 61.8636 76.0475 61.8636C76.0475 61.8636 80.7422 61.8946 83.7253 62.2292C86.8981 62.585 91.7688 63.6916 91.7688 63.6916L101.275 67.3478C101.275 67.3478 105.502 69.7266 107.49 71.0039C109.029 71.9921 109.736 72.7646 111.146 73.9288C113.332 75.7332 114.706 76.6015 116.63 78.6818C118.221 80.4006 120.287 83.4347 120.287 83.4347Z" stroke="black" stroke-width="0.365613"/>
</g>
<defs>
<filter id="filter0_i_200_2" x="47.9043" y="89.2561" width="84.5146" height="89.9691" filterUnits="userSpaceOnUse" color-interpolation-filters="sRGB">
<feFlood flood-opacity="0" result="BackgroundImageFix"/>
<feBlend mode="normal" in="SourceGraphic" in2="BackgroundImageFix" result="shape"/>
<feColorMatrix in="SourceAlpha" type="matrix" values="0 0 0 0 0 0 0 0 0 0 0 0 0 0 0 0 0 0 127 0" result="hardAlpha"/>
<feOffset dy="2.9249"/>
<feGaussianBlur stdDeviation="1.46245"/>
<feComposite in2="hardAlpha" operator="arithmetic" k2="-1" k3="1"/>
<feColorMatrix type="matrix" values="0 0 0 0 0 0 0 0 0 0 0 0 0 0 0 0 0 0 0.25 0"/>
<feBlend mode="normal" in2="shape" result="effect1_innerShadow_200_2"/>
</filter>
<filter id="filter1_f_200_2" x="39.354" y="17.9467" width="83.712" height="84.9654" filterUnits="userSpaceOnUse" color-interpolation-filters="sRGB">
<feFlood flood-opacity="0" result="BackgroundImageFix"/>
<feBlend mode="normal" in="SourceGraphic" in2="BackgroundImageFix" result="shape"/>
<feGaussianBlur stdDeviation="0.731225" result="effect1_foregroundBlur_200_2"/>
</filter>
<filter id="filter2_f_200_2" x="81.7094" y="175.514" width="16.3136" height="28.12" filterUnits="userSpaceOnUse" color-interpolation-filters="sRGB">
<feFlood flood-opacity="0" result="BackgroundImageFix"/>
<feBlend mode="normal" in="SourceGraphic" in2="BackgroundImageFix" result="shape"/>
<feGaussianBlur stdDeviation="0.731225" result="effect1_foregroundBlur_200_2"/>
</filter>
<filter id="filter3_f_200_2" x="57.732" y="19.4418" width="63.0711" height="64.4969" filterUnits="userSpaceOnUse" color-interpolation-filters="sRGB">
<feFlood flood-opacity="0" result="BackgroundImageFix"/>
<feBlend mode="normal" in="SourceGraphic" in2="BackgroundImageFix" result="shape"/>
<feGaussianBlur stdDeviation="0.182806" result="effect1_foregroundBlur_200_2"/>
</filter>
</defs>
</svg>
